<?xml version="1.0" encoding="UTF-8"?><svg id="Layer_1" xmlns="http://www.w3.org/2000/svg" viewBox="0 0 1862.1 2378"><path d="M1862,0v1473.1c-19.5,303-222.2,441.3-450.2,593.8-158.3,105.9-323.8,200.5-478.8,311.1-155.2-112.1-321.3-207.5-480.6-313.4C230.1,1916.8,19.1,1774.9,1.9,1479.1L0,0h1862ZM1773,90H91l-3,1377c9.2,96.9,39.1,188.7,97.4,266.5,70.1,93.6,171.7,158.1,268.6,220.5,107.4-268.3,164.6-551.7,188-840l82.1-27.2.4-281.3,149-159,58.5-492.5,56.4,490.6,153.1,158.9.7,281.3,83.7,29.3c23.1,286.8,61.3,582.1,189,842,89.3-61.6,183.5-120.9,250.9-207.6,76-97.9,105.3-203.9,110.2-327.3,17.4-436.5-13.4-884.5,0-1322.2l-3.1-8.9ZM832,877v169l105.1-38.2,94.9,34.2v-169l-101-103.1-99,107.1ZM924,2259v-1134l-202.7,75.5c-24.9,279.2-92.8,546.8-189.4,808.6l392.1,250Z"/><path d="M684.4,483.2l-38.3,6.4c-81.7,13.6-145.6,77.6-159.3,159.3l-6.4,38.3c0,.1-.2.1-.2,0l-6.4-38.3c-13.6-81.7-77.6-145.6-159.3-159.3l-38.3-6.4c-.1,0-.1-.2,0-.2l38.3-6.4c81.7-13.6,145.6-77.6,159.3-159.3l6.4-38.3c0-.1.2-.1.2,0l6.4,38.3c13.6,81.7,77.6,145.6,159.3,159.3l38.3,6.4c.1,0,.1.2,0,.2Z"/></svg>
